<svg width="92" height="92" viewBox="0 0 92 92" fill="none" xmlns="http://www.w3.org/2000/svg">
<circle cx="45.7826" cy="45.7826" r="45.7826" fill="#49021F"/>
<path d="M54.5495 68.188C51.7759 68.2338 49.0272 67.6553 46.5046 66.4949C44.1576 65.3913 42.1906 63.6099 40.8544 61.3778C39.4699 59.0827 38.7964 56.2231 38.7964 52.7992C38.7584 50.0148 39.4695 47.2718 40.8544 44.8603C42.2744 42.4093 44.3311 40.3933 46.8039 39.0283C49.4232 37.5609 52.5664 36.846 56.2708 36.846C56.5332 36.8431 56.7956 36.8556 57.0566 36.8837C57.3933 36.9213 57.7675 36.9213 58.2166 36.9589V25.0693C58.2166 24.8059 58.3288 24.6554 58.5907 24.6554H66.1867C66.2706 24.644 66.3556 24.6648 66.425 24.7136C66.4943 24.7624 66.5428 24.8356 66.5609 24.9188V60.8134C66.5609 61.4907 66.5983 62.2432 66.6357 63.071C66.6731 63.8987 66.748 64.6136 66.7854 65.2532C66.7934 65.3803 66.7616 65.5067 66.6944 65.6147C66.6273 65.7226 66.5283 65.8068 66.4112 65.8552C64.4513 66.6835 62.4055 67.2893 60.312 67.6613C58.4104 68.0078 56.4821 68.1841 54.5495 68.188ZM58.2166 60.6629V44.1077C57.8834 44.0269 57.5461 43.9641 57.2063 43.9196C56.7946 43.882 56.3831 43.8444 55.9714 43.8444C54.5047 43.8277 53.0552 44.1631 51.7432 44.8226C50.4645 45.4633 49.3697 46.4216 48.5626 47.6069C47.7394 48.8109 47.3278 50.4288 47.3278 52.3853C47.2952 53.7059 47.511 55.0208 47.9639 56.2608C48.3258 57.2635 48.9004 58.1751 49.6477 58.9322C50.3691 59.6244 51.24 60.1395 52.1922 60.4372C53.1945 60.7673 54.2432 60.9324 55.2979 60.9263C55.8592 60.9263 56.383 60.8887 56.8695 60.8511C57.3267 60.8865 57.7862 60.8223 58.2166 60.6629V60.6629Z" fill="#FF3366"/>
<path d="M32.9967 28.3803V66.984C32.9967 67.3979 32.8096 67.586 32.4728 67.586H25.1388C24.802 67.586 24.6523 67.3979 24.6523 66.984V28.3803C24.6523 28.0417 24.8394 27.8912 25.1762 27.8912H32.4728C32.5295 27.8822 32.5875 27.8849 32.6431 27.8992C32.6988 27.9134 32.7509 27.9389 32.7965 27.9742C32.842 28.0094 32.8799 28.0535 32.9079 28.1039C32.9359 28.1544 32.9533 28.21 32.9592 28.2674C32.9734 28.2823 32.9841 28.3001 32.9905 28.3196C32.997 28.3392 32.9991 28.3599 32.9967 28.3803V28.3803Z" fill="#FF3366"/>
</svg>
