<svg width="92" height="92" viewBox="0 0 92 92" fill="none" xmlns="http://www.w3.org/2000/svg">
<circle cx="45.7826" cy="45.7826" r="45.7826" fill="#000B1D"/>
<path d="M65.5921 45.8279C65.5921 51.0229 61.4038 55.2342 56.2374 55.2342C51.071 55.2342 46.8828 51.0229 46.8828 45.8279C46.8828 40.6329 51.071 36.4215 56.2374 36.4215C61.4038 36.4215 65.5921 40.6329 65.5921 45.8279Z" fill="#1ABCFE"/>
<path d="M46.8828 17.6086H56.2374C61.4038 17.6086 65.5921 21.82 65.5921 27.015C65.5921 32.21 61.4038 36.4214 56.2374 36.4214H46.8828V17.6086Z" fill="#FF7262"/>
<path d="M28.1738 27.015C28.1738 21.82 32.362 17.6086 37.5284 17.6086H46.8831V36.4214H37.5284C32.362 36.4214 28.1738 32.21 28.1738 27.015Z" fill="#F24E1E"/>
<path d="M28.1738 45.8279C28.1738 40.6329 32.362 36.4215 37.5284 36.4215H46.8831V55.2342H37.5284C32.362 55.2342 28.1738 51.0229 28.1738 45.8279Z" fill="#A259FF"/>
<path d="M37.5284 74.0466C42.6949 74.0466 46.8831 69.8352 46.8831 64.6402V55.2339H37.5284C32.362 55.2339 28.1738 59.4453 28.1738 64.6402C28.1738 69.8352 32.362 74.0466 37.5284 74.0466Z" fill="#0ACF83"/>
</svg>
