<svg width="92" height="92" viewBox="0 0 92 92" fill="none" xmlns="http://www.w3.org/2000/svg">
<circle cx="45.7826" cy="45.7826" r="45.7826" fill="#001E36"/>
<path d="M71.0067 42.4866C69.8769 41.8883 68.667 41.4574 67.4145 41.2074C66.039 40.8941 64.634 40.7301 63.2236 40.7182C62.4664 40.692 61.7095 40.7808 60.9785 40.9816C60.5125 41.0791 60.099 41.3473 59.8186 41.7341C59.6295 42.0394 59.5261 42.3904 59.5192 42.75C59.5366 43.1079 59.6678 43.4508 59.8934 43.7283C60.2481 44.1465 60.6801 44.4916 61.1656 44.7441C62.0263 45.1957 62.9243 45.6095 63.8223 45.9858C65.844 46.6701 67.7782 47.5921 69.5848 48.7324C70.8136 49.5094 71.8298 50.5829 72.5409 51.8553C73.1421 53.0557 73.4378 54.3873 73.4015 55.7308C73.4318 57.5092 72.9228 59.2547 71.9422 60.7349C70.8984 62.2369 69.4421 63.4006 67.7513 64.0836C65.9178 64.8737 63.6727 65.2876 60.9785 65.2876C59.2703 65.2946 57.5656 65.1307 55.8896 64.7985C54.5699 64.5692 53.2864 64.1643 52.0729 63.5945C51.9425 63.5287 51.834 63.4259 51.7609 63.2989C51.6877 63.1719 51.6531 63.0261 51.6613 62.8796V56.3328C51.6581 56.2685 51.67 56.2043 51.696 56.1455C51.722 56.0867 51.7614 56.0348 51.811 55.9941C51.8637 55.9633 51.9249 55.9502 51.9856 55.957C52.0462 55.9638 52.1031 55.99 52.1478 56.0318C53.5892 56.8862 55.1548 57.5083 56.7877 57.8754C58.2294 58.2526 59.7133 58.4423 61.2031 58.4398C62.625 58.4398 63.6353 58.2517 64.3088 57.913C64.6092 57.7735 64.8638 57.5507 65.0428 57.2708C65.2217 56.9909 65.3176 56.6655 65.3191 56.3328C65.3191 55.806 65.0197 55.3169 64.421 54.8278C63.8223 54.3386 62.5875 53.7742 60.754 53.0594C58.8731 52.3929 57.0868 51.4822 55.4406 50.3503C54.2681 49.51 53.2966 48.4175 52.5968 47.1522C51.9996 45.9638 51.704 44.6454 51.7362 43.3144C51.7417 41.7089 52.1815 40.1351 53.0084 38.7617C53.959 37.2513 55.3233 36.0492 56.9373 35.3002C58.696 34.3972 60.9037 33.9833 63.5604 33.9833C65.1131 33.9837 66.6638 34.0969 68.2003 34.3219C69.3051 34.4722 70.3864 34.763 71.4183 35.1873C71.5827 35.2459 71.7173 35.3677 71.7925 35.5259C71.8356 35.6728 71.8607 35.8244 71.8673 35.9774V42.1104C71.8679 42.1835 71.8513 42.2557 71.8187 42.3211C71.7862 42.3865 71.7388 42.4432 71.6802 42.4866C71.4625 42.5653 71.2244 42.5653 71.0067 42.4866Z" fill="#31A8FF"/>
<path d="M19.3691 64.0084V25.2919C19.3691 25.0285 19.4814 24.878 19.7433 24.878C20.3794 24.878 20.9781 24.878 21.8388 24.8403C22.6994 24.8027 23.6723 24.8027 24.6826 24.7651C25.6929 24.7275 26.778 24.7275 27.938 24.6898C29.0979 24.6522 30.2205 24.6522 31.3431 24.6522C34.4114 24.6522 36.9558 25.0285 39.0513 25.8186C40.9297 26.46 42.6425 27.514 44.0653 28.9039C45.2711 30.1203 46.2027 31.5831 46.7969 33.1932C47.3633 34.7612 47.6545 36.4162 47.6575 38.0845C47.6575 41.3203 46.9091 43.9917 45.4124 46.0987C43.9087 48.2029 41.8093 49.8025 39.388 50.689C36.8436 51.6296 34.0372 51.9683 30.9689 51.9683C30.0708 51.9683 29.4721 51.9683 29.0979 51.9307C28.7238 51.893 28.1999 51.893 27.4889 51.893V63.9708C27.4973 64.0327 27.4932 64.0957 27.4769 64.156C27.4606 64.2162 27.4324 64.2726 27.394 64.3218C27.3556 64.3709 27.3078 64.4118 27.2534 64.442C27.199 64.4721 27.1391 64.4911 27.0773 64.4975H19.8182C19.5188 64.4975 19.3691 64.347 19.3691 64.0084ZM27.5264 32.1397V44.7818C28.0502 44.8194 28.5367 44.8571 28.9857 44.8571H30.9689C32.4296 44.8588 33.8816 44.6303 35.272 44.1798C36.4649 43.8271 37.5306 43.1345 38.3403 42.1857C39.1261 41.245 39.5003 39.9658 39.5003 38.3103C39.5355 37.1345 39.237 35.973 38.6397 34.9616C38.0157 33.9847 37.0982 33.2334 36.0204 32.8169C34.6156 32.2637 33.1126 32.0075 31.605 32.0644C30.6321 32.0644 29.7715 32.0644 29.0605 32.1021C28.5491 32.0684 28.0356 32.081 27.5264 32.1397V32.1397Z" fill="#31A8FF"/>
</svg>
