<svg width="92" height="92" viewBox="0 0 92 92" fill="none" xmlns="http://www.w3.org/2000/svg">
<circle cx="45.7826" cy="45.7826" r="45.7826" fill="#330000"/>
<path d="M66.9934 34.0965C66.3672 34.11 65.7445 34.0005 65.1615 33.7744C64.5786 33.5483 64.047 33.2102 63.5979 32.7796C62.7238 31.837 62.2582 30.5947 62.3007 29.318C62.2782 28.696 62.3889 28.0763 62.6255 27.4993C62.8622 26.9223 63.2195 26.401 63.6742 25.9694C64.5912 25.1146 65.8079 24.6427 67.0697 24.6525C68.5577 24.6525 69.7022 25.104 70.5416 25.9694C71.3868 26.8817 71.8384 28.0828 71.8006 29.318C71.8239 29.9538 71.7177 30.5876 71.4883 31.1822C71.259 31.7767 70.9111 32.3199 70.4653 32.7796C70.0157 33.2312 69.4732 33.5824 68.8743 33.8096C68.2753 34.0367 67.634 34.1346 66.9934 34.0965V34.0965ZM62.7204 66.7553V37.7838C62.7204 37.4075 62.873 37.257 63.2164 37.257H70.7705C71.1139 37.257 71.2665 37.4451 71.2665 37.7838V66.7553C71.2665 67.1692 71.1139 67.3573 70.7705 67.3573H63.2927C63.2125 67.3639 63.1319 67.3524 63.0568 67.3239C62.9817 67.2954 62.9141 67.2505 62.8591 67.1926C62.8041 67.1348 62.763 67.0654 62.739 66.9896C62.715 66.9139 62.7086 66.8338 62.7204 66.7553V66.7553Z" fill="#FF9A00"/>
<path d="M46.582 57.9509H32.3894L29.4898 66.7929C29.4574 66.9541 29.3651 67.0975 29.231 67.1949C29.0969 67.2924 28.9306 67.3369 28.7649 67.3197H21.5923C21.1727 67.3197 21.0582 67.0939 21.1727 66.6424L33.4577 31.7636C33.5721 31.3874 33.6866 30.9735 33.8392 30.522C33.9927 29.7156 34.0694 28.8968 34.0681 28.0764C34.0567 27.9821 34.0818 27.8871 34.1384 27.8104C34.195 27.7336 34.2789 27.6808 34.3733 27.6625H44.2547C44.5599 27.6625 44.7125 27.7754 44.7507 27.9635L58.6762 66.7177C58.7907 67.1315 58.6762 67.3197 58.2947 67.3197H50.3209C50.1861 67.3325 50.0509 67.298 49.9393 67.2223C49.8277 67.1466 49.7466 67.0345 49.7105 66.9058L46.582 57.9509ZM34.6022 50.313H44.2929C44.064 49.5228 43.7587 48.5822 43.4154 47.6039C43.072 46.6257 42.7286 45.4969 42.3853 44.3682C42.0419 43.2394 41.6604 42.073 41.2789 40.9066C40.8973 39.7402 40.554 38.6491 40.2487 37.558C39.9435 36.4668 39.6765 35.5262 39.4094 34.6232H39.3331C38.9902 36.2631 38.5572 37.8833 38.0359 39.4769C37.4636 41.2829 36.8914 43.1641 36.2809 45.0454C35.7468 46.9643 35.1745 48.7327 34.6022 50.313V50.313Z" fill="#FF9A00"/>
</svg>
